<mxfile host="app.diagrams.net" modified="2024-04-16T14:34:16.968Z" agent="Mozilla/5.0 (Windows NT 10.0; Win64; x64) AppleWebKit/537.36 (KHTML, like Gecko) Chrome/123.0.0.0 Safari/537.36 Edg/123.0.0.0" etag="BuZW4XDYGuJvKFE_mgOk" version="24.2.5" type="github">
  <diagram name="Page-1" id="2mgG1ZenihQPI38-4Km9">
    <mxGraphModel dx="1483" dy="911" grid="1" gridSize="10" guides="1" tooltips="1" connect="1" arrows="1" fold="1" page="1" pageScale="1" pageWidth="850" pageHeight="1100" math="0" shadow="0">
      <root>
        <mxCell id="0" />
        <mxCell id="1" parent="0" />
        <mxCell id="apzST0HvyVAaXvDr1p3V-2" value="" style="swimlane;startSize=0;" vertex="1" parent="1">
          <mxGeometry x="54" y="50" width="216" height="520" as="geometry" />
        </mxCell>
        <mxCell id="apzST0HvyVAaXvDr1p3V-3" value="Discover" style="rounded=1;whiteSpace=wrap;html=1;" vertex="1" parent="apzST0HvyVAaXvDr1p3V-2">
          <mxGeometry y="460" width="80" height="60" as="geometry" />
        </mxCell>
        <mxCell id="apzST0HvyVAaXvDr1p3V-4" value="Call /Chat" style="rounded=1;whiteSpace=wrap;html=1;" vertex="1" parent="apzST0HvyVAaXvDr1p3V-2">
          <mxGeometry x="80" y="460" width="70" height="60" as="geometry" />
        </mxCell>
        <mxCell id="apzST0HvyVAaXvDr1p3V-5" value="Hub" style="rounded=1;whiteSpace=wrap;html=1;" vertex="1" parent="apzST0HvyVAaXvDr1p3V-2">
          <mxGeometry x="150" y="460" width="50" height="60" as="geometry" />
        </mxCell>
        <mxCell id="apzST0HvyVAaXvDr1p3V-23" value="Profile" style="ellipse;whiteSpace=wrap;html=1;aspect=fixed;" vertex="1" parent="apzST0HvyVAaXvDr1p3V-2">
          <mxGeometry x="170" y="10" width="46" height="46" as="geometry" />
        </mxCell>
        <mxCell id="apzST0HvyVAaXvDr1p3V-8" value="" style="swimlane;startSize=0;" vertex="1" parent="1">
          <mxGeometry x="990" y="30" width="290" height="520" as="geometry" />
        </mxCell>
        <mxCell id="apzST0HvyVAaXvDr1p3V-9" value="Discover" style="rounded=1;whiteSpace=wrap;html=1;" vertex="1" parent="apzST0HvyVAaXvDr1p3V-8">
          <mxGeometry y="460" width="110" height="60" as="geometry" />
        </mxCell>
        <mxCell id="apzST0HvyVAaXvDr1p3V-10" value="Call /Chat" style="rounded=1;whiteSpace=wrap;html=1;" vertex="1" parent="apzST0HvyVAaXvDr1p3V-8">
          <mxGeometry x="110" y="460" width="90" height="60" as="geometry" />
        </mxCell>
        <mxCell id="apzST0HvyVAaXvDr1p3V-11" value="Hub" style="rounded=1;whiteSpace=wrap;html=1;fillColor=#ffe6cc;strokeColor=#d79b00;" vertex="1" parent="apzST0HvyVAaXvDr1p3V-8">
          <mxGeometry x="200" y="460" width="90" height="60" as="geometry" />
        </mxCell>
        <mxCell id="apzST0HvyVAaXvDr1p3V-12" value="" style="rounded=1;whiteSpace=wrap;html=1;" vertex="1" parent="apzST0HvyVAaXvDr1p3V-8">
          <mxGeometry width="150" height="460" as="geometry" />
        </mxCell>
        <mxCell id="apzST0HvyVAaXvDr1p3V-15" value="Hub Option" style="text;html=1;align=center;verticalAlign=middle;whiteSpace=wrap;rounded=0;" vertex="1" parent="apzST0HvyVAaXvDr1p3V-8">
          <mxGeometry x="30" y="20" width="100" height="30" as="geometry" />
        </mxCell>
        <mxCell id="apzST0HvyVAaXvDr1p3V-32" value="Profile" style="ellipse;whiteSpace=wrap;html=1;aspect=fixed;" vertex="1" parent="apzST0HvyVAaXvDr1p3V-8">
          <mxGeometry x="239" width="46" height="46" as="geometry" />
        </mxCell>
        <mxCell id="apzST0HvyVAaXvDr1p3V-16" value="" style="swimlane;startSize=0;" vertex="1" parent="1">
          <mxGeometry x="425" y="50" width="290" height="520" as="geometry" />
        </mxCell>
        <mxCell id="apzST0HvyVAaXvDr1p3V-17" value="Discover" style="rounded=1;whiteSpace=wrap;html=1;fillColor=#ffe6cc;strokeColor=#d79b00;" vertex="1" parent="apzST0HvyVAaXvDr1p3V-16">
          <mxGeometry y="460" width="110" height="60" as="geometry" />
        </mxCell>
        <mxCell id="apzST0HvyVAaXvDr1p3V-18" value="Call /Chat" style="rounded=1;whiteSpace=wrap;html=1;" vertex="1" parent="apzST0HvyVAaXvDr1p3V-16">
          <mxGeometry x="110" y="460" width="90" height="60" as="geometry" />
        </mxCell>
        <mxCell id="apzST0HvyVAaXvDr1p3V-19" value="Hub" style="rounded=1;whiteSpace=wrap;html=1;" vertex="1" parent="apzST0HvyVAaXvDr1p3V-16">
          <mxGeometry x="200" y="460" width="90" height="60" as="geometry" />
        </mxCell>
        <mxCell id="apzST0HvyVAaXvDr1p3V-20" value="" style="rounded=1;whiteSpace=wrap;html=1;" vertex="1" parent="apzST0HvyVAaXvDr1p3V-16">
          <mxGeometry width="170" height="460" as="geometry" />
        </mxCell>
        <mxCell id="apzST0HvyVAaXvDr1p3V-21" value="Discover Option" style="text;html=1;align=center;verticalAlign=middle;whiteSpace=wrap;rounded=0;" vertex="1" parent="apzST0HvyVAaXvDr1p3V-16">
          <mxGeometry x="30" y="20" width="100" height="30" as="geometry" />
        </mxCell>
        <mxCell id="apzST0HvyVAaXvDr1p3V-30" value="Profile" style="ellipse;whiteSpace=wrap;html=1;aspect=fixed;" vertex="1" parent="apzST0HvyVAaXvDr1p3V-16">
          <mxGeometry x="235" width="46" height="46" as="geometry" />
        </mxCell>
        <mxCell id="apzST0HvyVAaXvDr1p3V-33" value="Challenges &amp;gt;" style="text;html=1;align=center;verticalAlign=middle;whiteSpace=wrap;rounded=0;fillColor=#ffe6cc;strokeColor=#d79b00;" vertex="1" parent="apzST0HvyVAaXvDr1p3V-16">
          <mxGeometry x="25" y="190" width="135" height="30" as="geometry" />
        </mxCell>
        <mxCell id="apzST0HvyVAaXvDr1p3V-36" value="Products &amp;gt;" style="text;html=1;align=center;verticalAlign=middle;whiteSpace=wrap;rounded=0;fillColor=#ffe6cc;strokeColor=#d79b00;" vertex="1" parent="apzST0HvyVAaXvDr1p3V-16">
          <mxGeometry x="25" y="305" width="135" height="30" as="geometry" />
        </mxCell>
        <mxCell id="apzST0HvyVAaXvDr1p3V-37" value="Marketplace &amp;gt;" style="text;html=1;align=center;verticalAlign=middle;whiteSpace=wrap;rounded=0;fillColor=#ffe6cc;strokeColor=#d79b00;" vertex="1" parent="apzST0HvyVAaXvDr1p3V-16">
          <mxGeometry x="25" y="245" width="135" height="30" as="geometry" />
        </mxCell>
        <mxCell id="apzST0HvyVAaXvDr1p3V-38" value="Events &amp;gt;" style="text;html=1;align=center;verticalAlign=middle;whiteSpace=wrap;rounded=0;fillColor=#ffe6cc;strokeColor=#d79b00;" vertex="1" parent="apzST0HvyVAaXvDr1p3V-16">
          <mxGeometry x="25" y="360" width="135" height="30" as="geometry" />
        </mxCell>
        <mxCell id="apzST0HvyVAaXvDr1p3V-39" value="Coaches &amp;gt;" style="text;html=1;align=center;verticalAlign=middle;whiteSpace=wrap;rounded=0;fillColor=#ffe6cc;strokeColor=#d79b00;" vertex="1" parent="apzST0HvyVAaXvDr1p3V-16">
          <mxGeometry x="25" y="410" width="135" height="30" as="geometry" />
        </mxCell>
        <mxCell id="apzST0HvyVAaXvDr1p3V-34" value="Community &amp;gt;&amp;nbsp;" style="text;html=1;align=center;verticalAlign=middle;whiteSpace=wrap;rounded=0;fillColor=#ffe6cc;strokeColor=#d79b00;" vertex="1" parent="1">
          <mxGeometry x="450" y="120" width="135" height="30" as="geometry" />
        </mxCell>
        <mxCell id="apzST0HvyVAaXvDr1p3V-35" value="Programs &amp;gt;" style="text;html=1;align=center;verticalAlign=middle;whiteSpace=wrap;rounded=0;fillColor=#ffe6cc;strokeColor=#d79b00;" vertex="1" parent="1">
          <mxGeometry x="449" y="180" width="135" height="30" as="geometry" />
        </mxCell>
      </root>
    </mxGraphModel>
  </diagram>
</mxfile>
